<svg width="1020" height="630" viewBox="0 0 1020 630" fill="none" xmlns="http://www.w3.org/2000/svg">
<path d="M174.421 528.745C173.533 528.767 172.674 529.138 171.97 529.802C169.881 523.038 166.646 518.691 163.013 518.691C159.379 518.691 156.145 523.038 154.056 529.802C153.352 529.138 152.493 528.767 151.605 528.745C147.477 528.745 144.13 537.298 144.13 547.848H181.895C181.895 537.298 178.549 528.745 174.421 528.745Z" fill="#894DB1"/>
<path d="M324.474 546.782H133V548.914H324.474V546.782Z" fill="#3F3D56"/>
<path d="M855.025 483.934C854.137 483.956 853.278 484.327 852.574 484.991C850.485 478.227 847.251 473.88 843.617 473.88C839.984 473.88 836.749 478.227 834.66 484.991C833.956 484.327 833.097 483.956 832.209 483.934C828.081 483.934 824.735 492.487 824.735 503.037H862.499C862.499 492.487 859.153 483.934 855.025 483.934Z" fill="#894DB1"/>
<path d="M773.768 132.94H591.441V128.337H508.767V132.94H325.688C324.069 132.94 322.465 133.331 320.969 134.091C319.472 134.85 318.113 135.963 316.968 137.366C315.822 138.769 314.914 140.435 314.294 142.268C313.674 144.101 313.355 146.066 313.355 148.05V453.916C313.355 457.923 314.655 461.766 316.968 464.6C319.28 467.434 322.417 469.025 325.688 469.025H773.768C777.039 469.025 780.176 467.434 782.488 464.6C784.801 461.766 786.101 457.923 786.101 453.916V148.05C786.101 146.066 785.782 144.101 785.162 142.268C784.542 140.435 783.634 138.769 782.488 137.366C781.343 135.963 779.984 134.85 778.487 134.091C776.991 133.331 775.387 132.94 773.768 132.94V132.94Z" fill="#3F3D56"/>
<path opacity="0.2" d="M769.563 159.639H329.894V463.505H769.563V159.639Z" fill="black"/>
<path d="M549.352 151.356C551.843 151.356 553.862 148.883 553.862 145.831C553.862 142.78 551.843 140.307 549.352 140.307C546.862 140.307 544.843 142.78 544.843 145.831C544.843 148.883 546.862 151.356 549.352 151.356Z" fill="#894DB1"/>
<path d="M868 500.905H230.043V503.037H868V500.905Z" fill="#3F3D56"/>
<path d="M609.799 273.168V250.687C609.799 247.065 609.217 243.478 608.085 240.131C606.954 236.785 605.295 233.744 603.205 231.183C601.114 228.621 598.632 226.59 595.9 225.203C593.169 223.817 590.241 223.104 587.284 223.104H568.934C568.934 220.069 560.974 217.583 550.86 217.347V190.236C554.033 189.747 556.935 187.794 558.974 184.775C561.013 181.756 562.037 177.899 561.837 173.988C561.637 170.077 560.227 166.407 557.896 163.724C555.565 161.042 552.486 159.548 549.288 159.548C546.089 159.548 543.011 161.042 540.68 163.724C538.348 166.407 536.939 170.077 536.739 173.988C536.538 177.899 537.562 181.756 539.602 184.775C541.641 187.794 544.543 189.747 547.716 190.236V217.347C537.601 217.583 529.641 220.069 529.641 223.104H508.148C505.191 223.104 502.263 223.817 499.532 225.203C496.8 226.59 494.318 228.621 492.228 231.183C490.137 233.744 488.478 236.785 487.347 240.131C486.215 243.478 485.633 247.065 485.633 250.687V273.168C483.029 273.168 480.918 283.944 480.918 297.238C480.918 310.531 483.029 321.307 485.633 321.307V347.639C485.633 351.261 486.215 354.848 487.347 358.195C488.478 361.541 490.137 364.582 492.228 367.143C494.318 369.705 496.8 371.737 499.532 373.123C502.263 374.509 505.191 375.222 508.148 375.222H587.284C590.241 375.222 593.169 374.509 595.9 373.123C598.632 371.737 601.114 369.705 603.205 367.143C605.295 364.582 606.954 361.541 608.085 358.195C609.217 354.848 609.799 351.261 609.799 347.639V321.307C612.403 321.307 614.514 310.531 614.514 297.238C614.514 283.944 612.403 273.168 609.799 273.168Z" fill="#894DB1"/>
<path d="M512.655 231.769H582.777C588.068 231.769 593.142 234.344 596.883 238.927C600.625 243.511 602.726 249.728 602.726 256.21V342.117C602.726 348.599 600.625 354.815 596.883 359.399C593.142 363.982 588.068 366.558 582.777 366.558H512.655C507.364 366.558 502.29 363.982 498.549 359.399C494.808 354.815 492.706 348.599 492.706 342.117V256.21C492.706 249.728 494.808 243.511 498.549 238.927C502.29 234.344 507.364 231.769 512.655 231.769Z" fill="#3F3D56"/>
<path d="M522.569 295.794C518.818 295.788 515.223 293.961 512.571 290.712C509.919 287.463 508.427 283.058 508.423 278.463C508.423 278.208 508.506 277.963 508.653 277.783C508.801 277.602 509.001 277.501 509.209 277.501C509.417 277.501 509.617 277.602 509.765 277.783C509.912 277.963 509.995 278.208 509.995 278.463C509.995 282.549 511.32 286.467 513.678 289.356C516.036 292.245 519.234 293.868 522.569 293.868C525.903 293.868 529.102 292.245 531.46 289.356C533.818 286.467 535.142 282.549 535.142 278.463C535.142 278.208 535.225 277.963 535.373 277.783C535.52 277.602 535.72 277.501 535.928 277.501C536.137 277.501 536.337 277.602 536.484 277.783C536.631 277.963 536.714 278.208 536.714 278.463C536.71 283.058 535.218 287.463 532.566 290.712C529.914 293.961 526.319 295.788 522.569 295.794V295.794Z" fill="#894DB1"/>
<path d="M547.716 328.528C544.799 328.524 542.003 327.102 539.94 324.576C537.878 322.049 536.718 318.623 536.714 315.049C536.714 314.794 536.797 314.549 536.944 314.368C537.092 314.188 537.292 314.086 537.5 314.086C537.708 314.086 537.908 314.188 538.056 314.368C538.203 314.549 538.286 314.794 538.286 315.049C538.286 318.113 539.279 321.052 541.048 323.218C542.816 325.385 545.215 326.602 547.716 326.602C550.217 326.602 552.616 325.385 554.384 323.218C556.153 321.052 557.146 318.113 557.146 315.049C557.146 314.794 557.229 314.549 557.377 314.368C557.524 314.188 557.724 314.086 557.932 314.086C558.141 314.086 558.341 314.188 558.488 314.368C558.635 314.549 558.718 314.794 558.718 315.049C558.715 318.623 557.555 322.049 555.492 324.576C553.43 327.102 550.633 328.524 547.716 328.528Z" fill="#894DB1"/>
<path d="M572.864 295.794C569.113 295.788 565.518 293.961 562.866 290.712C560.214 287.463 558.722 283.058 558.718 278.463C558.718 278.208 558.801 277.963 558.948 277.783C559.096 277.602 559.295 277.501 559.504 277.501C559.712 277.501 559.912 277.602 560.06 277.783C560.207 277.963 560.29 278.208 560.29 278.463C560.29 282.549 561.615 286.467 563.973 289.356C566.331 292.245 569.529 293.868 572.864 293.868C576.198 293.868 579.397 292.245 581.755 289.356C584.113 286.467 585.437 282.549 585.437 278.463C585.437 278.208 585.52 277.963 585.668 277.783C585.815 277.602 586.015 277.501 586.223 277.501C586.432 277.501 586.632 277.602 586.779 277.783C586.926 277.963 587.009 278.208 587.009 278.463C587.005 283.058 585.513 287.463 582.861 290.712C580.209 293.961 576.614 295.788 572.864 295.794V295.794Z" fill="#894DB1"/>
<path d="M522.569 288.091C526.475 288.091 529.641 284.212 529.641 279.426C529.641 274.641 526.475 270.761 522.569 270.761C518.662 270.761 515.496 274.641 515.496 279.426C515.496 284.212 518.662 288.091 522.569 288.091Z" fill="#894DB1"/>
<path d="M572.864 288.091C576.77 288.091 579.936 284.212 579.936 279.426C579.936 274.641 576.77 270.761 572.864 270.761C568.957 270.761 565.791 274.641 565.791 279.426C565.791 284.212 568.957 288.091 572.864 288.091Z" fill="#894DB1"/>
<path d="M547.716 323.714C551.188 323.714 554.003 321.99 554.003 319.863C554.003 317.736 551.188 316.012 547.716 316.012C544.244 316.012 541.429 317.736 541.429 319.863C541.429 321.99 544.244 323.714 547.716 323.714Z" fill="#894DB1"/>
<path d="M798.446 457.976H755.537V454.188C755.537 454.09 755.521 453.992 755.49 453.901C755.459 453.81 755.414 453.727 755.357 453.657C755.3 453.588 755.232 453.532 755.158 453.495C755.084 453.457 755.004 453.437 754.924 453.437H740.212C740.131 453.437 740.051 453.457 739.977 453.495C739.903 453.532 739.835 453.588 739.778 453.657C739.721 453.727 739.676 453.81 739.645 453.901C739.615 453.992 739.599 454.09 739.599 454.188V457.976H730.404V454.188C730.404 454.09 730.388 453.992 730.357 453.901C730.326 453.81 730.281 453.727 730.224 453.657C730.167 453.588 730.1 453.532 730.025 453.495C729.951 453.457 729.871 453.437 729.791 453.437H715.079C714.998 453.437 714.919 453.457 714.844 453.495C714.77 453.532 714.702 453.588 714.646 453.657C714.589 453.727 714.543 453.81 714.513 453.901C714.482 453.992 714.466 454.09 714.466 454.188V457.976H705.271V454.188C705.271 454.09 705.255 453.992 705.224 453.901C705.194 453.81 705.148 453.727 705.092 453.657C705.035 453.588 704.967 453.532 704.893 453.495C704.818 453.457 704.739 453.437 704.658 453.437H689.946C689.866 453.437 689.786 453.457 689.712 453.495C689.637 453.532 689.57 453.588 689.513 453.657C689.456 453.727 689.411 453.81 689.38 453.901C689.349 453.992 689.333 454.09 689.333 454.188V457.976H680.138V454.188C680.138 454.09 680.123 453.992 680.092 453.901C680.061 453.81 680.016 453.727 679.959 453.657C679.902 453.588 679.834 453.532 679.76 453.495C679.686 453.457 679.606 453.437 679.525 453.437H664.814C664.733 453.437 664.653 453.457 664.579 453.495C664.505 453.532 664.437 453.588 664.38 453.657C664.323 453.727 664.278 453.81 664.247 453.901C664.216 453.992 664.201 454.09 664.201 454.188V457.976H655.006V454.188C655.006 454.09 654.99 453.992 654.959 453.901C654.928 453.81 654.883 453.727 654.826 453.657C654.769 453.588 654.702 453.532 654.627 453.495C654.553 453.457 654.473 453.437 654.393 453.437H639.681C639.6 453.437 639.521 453.457 639.446 453.495C639.372 453.532 639.304 453.588 639.247 453.657C639.19 453.727 639.145 453.81 639.114 453.901C639.084 453.992 639.068 454.09 639.068 454.188V457.976H629.873V454.188C629.873 454.09 629.857 453.992 629.826 453.901C629.795 453.81 629.75 453.727 629.693 453.657C629.637 453.588 629.569 453.532 629.495 453.495C629.42 453.457 629.34 453.437 629.26 453.437H614.548C614.468 453.437 614.388 453.457 614.314 453.495C614.239 453.532 614.172 453.588 614.115 453.657C614.058 453.727 614.013 453.81 613.982 453.901C613.951 453.992 613.935 454.09 613.935 454.188V457.976H604.74V454.188C604.74 454.09 604.724 453.992 604.694 453.901C604.663 453.81 604.618 453.727 604.561 453.657C604.504 453.588 604.436 453.532 604.362 453.495C604.287 453.457 604.208 453.437 604.127 453.437H488.885C488.804 453.437 488.724 453.457 488.65 453.495C488.576 453.532 488.508 453.588 488.451 453.657C488.394 453.727 488.349 453.81 488.318 453.901C488.287 453.992 488.272 454.09 488.272 454.188V457.976H479.077V454.188C479.077 454.09 479.061 453.992 479.03 453.901C478.999 453.81 478.954 453.727 478.897 453.657C478.84 453.588 478.773 453.532 478.698 453.495C478.624 453.457 478.544 453.437 478.464 453.437H463.752C463.671 453.437 463.592 453.457 463.517 453.495C463.443 453.532 463.375 453.588 463.318 453.657C463.261 453.727 463.216 453.81 463.186 453.901C463.155 453.992 463.139 454.09 463.139 454.188V457.976H453.944V454.188C453.944 454.09 453.928 453.992 453.897 453.901C453.867 453.81 453.821 453.727 453.764 453.657C453.707 453.588 453.64 453.532 453.566 453.495C453.491 453.457 453.411 453.437 453.331 453.437H438.619C438.539 453.437 438.459 453.457 438.385 453.495C438.31 453.532 438.243 453.588 438.186 453.657C438.129 453.727 438.084 453.81 438.053 453.901C438.022 453.992 438.006 454.09 438.006 454.188V457.976H428.811V454.188C428.811 454.09 428.795 453.992 428.765 453.901C428.734 453.81 428.689 453.727 428.632 453.657C428.575 453.588 428.507 453.532 428.433 453.495C428.358 453.457 428.279 453.437 428.198 453.437H413.486C413.406 453.437 413.326 453.457 413.252 453.495C413.177 453.532 413.11 453.588 413.053 453.657C412.996 453.727 412.951 453.81 412.92 453.901C412.889 453.992 412.873 454.09 412.873 454.188V457.976H403.679V454.188C403.679 454.09 403.663 453.992 403.632 453.901C403.601 453.81 403.556 453.727 403.499 453.657C403.442 453.588 403.375 453.532 403.3 453.495C403.226 453.457 403.146 453.437 403.066 453.437H388.354C388.273 453.437 388.194 453.457 388.119 453.495C388.045 453.532 387.977 453.588 387.92 453.657C387.863 453.727 387.818 453.81 387.787 453.901C387.757 453.992 387.741 454.09 387.741 454.188V457.976H378.546V454.188C378.546 454.09 378.53 453.992 378.499 453.901C378.468 453.81 378.423 453.727 378.366 453.657C378.309 453.588 378.242 453.532 378.167 453.495C378.093 453.457 378.013 453.437 377.933 453.437H363.221C363.141 453.437 363.061 453.457 362.986 453.495C362.912 453.532 362.844 453.588 362.788 453.657C362.731 453.727 362.685 453.81 362.655 453.901C362.624 453.992 362.608 454.09 362.608 454.188V457.976H353.413V454.188C353.413 454.09 353.397 453.992 353.366 453.901C353.336 453.81 353.291 453.727 353.234 453.657C353.177 453.588 353.109 453.532 353.035 453.495C352.96 453.457 352.881 453.437 352.8 453.437H338.088C338.008 453.437 337.928 453.457 337.854 453.495C337.779 453.532 337.712 453.588 337.655 453.657C337.598 453.727 337.553 453.81 337.522 453.901C337.491 453.992 337.475 454.09 337.475 454.188V457.976H309.278C307.346 457.976 305.433 458.442 303.648 459.348C301.863 460.254 300.241 461.581 298.875 463.255C297.509 464.929 296.425 466.916 295.686 469.102C294.946 471.289 294.566 473.633 294.566 476V484.15C294.566 488.93 296.116 493.514 298.875 496.895C301.634 500.275 305.376 502.174 309.278 502.174H798.446C802.348 502.174 806.09 500.275 808.849 496.895C811.608 493.514 813.158 488.93 813.158 484.15V476C813.158 473.633 812.777 471.289 812.038 469.102C811.299 466.916 810.215 464.929 808.849 463.255C807.483 461.581 805.861 460.254 804.076 459.348C802.291 458.442 800.378 457.976 798.446 457.976V457.976Z" fill="#3F3D56"/>
<path d="M690.451 374.019H397.148V376.151H690.451V374.019Z" fill="#894DB1"/>
<path d="M418.036 372.952H345.798C348.11 339.603 348.11 306.073 345.798 272.723H418.036C414.058 307.051 413.826 340.514 418.036 372.952Z" fill="#D0CDE1"/>
<path d="M408.462 292.982H356.242V297.247H408.462V292.982Z" fill="#3F3D56"/>
<path d="M408.462 306.844H356.242V311.109H408.462V306.844Z" fill="#3F3D56"/>
<path d="M408.462 320.705H356.242V324.97H408.462V320.705Z" fill="#3F3D56"/>
<path d="M408.462 334.567H356.242V338.832H408.462V334.567Z" fill="#3F3D56"/>
<path d="M408.462 348.428H356.242V352.693H408.462V348.428Z" fill="#3F3D56"/>
<path d="M47.592 591.748C46.5714 591.773 45.5844 592.19 44.7755 592.939C42.3751 585.312 38.659 580.41 34.4842 580.41C30.3094 580.41 26.5933 585.312 24.1929 592.939C23.3841 592.19 22.397 591.773 21.3764 591.748C16.6335 591.748 12.7886 601.392 12.7886 613.289H56.1799C56.1799 601.392 52.3349 591.748 47.592 591.748Z" fill="#894DB1"/>
<path d="M220 612.086H0V614.491H220V612.086Z" fill="#3F3D56"/>
<path d="M327.5 416.076H244.5C247.156 378.47 247.156 340.662 244.5 303.057H327.5C322.93 341.765 322.663 379.498 327.5 416.076Z" fill="#E7E6EF"/>
<path d="M316.5 325.901H256.5V330.71H316.5V325.901Z" fill="#3F3D56"/>
<path d="M316.5 341.531H256.5V346.341H316.5V341.531Z" fill="#3F3D56"/>
<path d="M316.5 357.161H256.5V361.971H316.5V357.161Z" fill="#3F3D56"/>
<path d="M316.5 372.792H256.5V377.601H316.5V372.792Z" fill="#3F3D56"/>
<path d="M316.5 388.422H256.5V393.231H316.5V388.422Z" fill="#3F3D56"/>
<path d="M106.944 38.8563C106.944 38.8563 93.9031 33.2564 85.5195 55.656C77.1359 78.0557 64.0947 102.695 64.0947 102.695L71.5468 104.935C71.5468 104.935 73.4098 89.2555 78.0674 87.0155L76.2044 107.175C76.2044 107.175 132.095 130.695 157.246 104.935L156.314 97.0954C156.314 97.0954 160.04 98.2153 160.04 104.935L162.835 101.575C162.835 101.575 160.04 94.8554 151.657 85.8955C146.154 80.0147 144.263 68.8264 143.613 61.8313C143.127 55.9904 141.183 50.4626 138.037 45.9731C132.466 38.2099 122.314 29.9587 106.944 38.8563Z" fill="#2F2E41"/>
<path d="M69.335 532.927L73.335 560.581L89.335 556.974L92.335 532.927H69.335Z" fill="#FFB9B9"/>
<path d="M92.3349 548.558L70.3349 550.963L71.3349 572.605L70.3349 600.258C70.3349 600.258 57.3349 631.519 76.3349 629.114C95.3349 626.709 93.3349 614.686 93.3349 614.686L98.3349 607.472L95.3349 589.437L92.3349 548.558Z" fill="#2F2E41"/>
<path d="M159.335 532.927L155.335 560.581L139.335 556.974L136.335 532.927H159.335Z" fill="#FFB9B9"/>
<path d="M136.335 548.558L158.335 550.963L157.335 572.605L158.335 600.258C158.335 600.258 171.335 631.519 152.335 629.114C133.335 626.709 135.335 614.686 135.335 614.686L130.335 607.472L133.335 589.437L136.335 548.558Z" fill="#2F2E41"/>
<path d="M113.335 113.315C126.038 113.315 136.335 100.934 136.335 85.6616C136.335 70.3889 126.038 58.008 113.335 58.008C100.632 58.008 90.335 70.3889 90.335 85.6616C90.335 100.934 100.632 113.315 113.335 113.315Z" fill="#FFB9B9"/>
<path d="M98.3348 100.09L101.335 143.373L129.335 142.171C129.335 142.171 121.335 114.517 126.335 103.697L98.3348 100.09Z" fill="#FFB9B9"/>
<path d="M114.335 134.957L125.853 126.32L138.335 133.755L158.335 144.576L151.335 246.774C151.335 246.774 167.335 310.497 164.335 341.758C161.335 373.018 197.335 529.321 168.335 536.535C139.335 543.749 118.335 550.963 117.335 538.939C116.335 526.916 114.335 342.96 114.335 342.96C114.335 342.96 111.335 537.737 99.3348 540.142C87.3348 542.546 35.3348 552.165 39.3348 537.737C43.3348 523.309 70.3348 270.82 83.3348 256.392L85.3348 244.369L68.3348 146.98L100.259 127.85L114.335 134.957Z" fill="#2F2E41"/>
<path d="M54.3348 284.046L53.3348 333.341C53.3348 333.341 43.7088 382.01 60.0218 381.722C76.3348 381.434 64.3348 333.341 64.3348 333.341L71.3348 285.248L54.3348 284.046Z" fill="#FFB9B9"/>
<path d="M205.548 232.308L233.652 268.221C233.652 268.221 267.832 296.747 255.522 309.621C243.212 322.494 225.459 277.047 225.459 277.047L193.554 246.843L205.548 232.308Z" fill="#FFB9B9"/>
<path d="M83.835 253.386L152.325 250.861L151.435 245.27V245.246L85.235 243.804L83.835 253.386Z" fill="#D0CDE1"/>
<path d="M97.835 255.791C101.149 255.791 103.835 252.561 103.835 248.577C103.835 244.593 101.149 241.363 97.835 241.363C94.5213 241.363 91.835 244.593 91.835 248.577C91.835 252.561 94.5213 255.791 97.835 255.791Z" fill="#2F2E41"/>
<path d="M76.3349 148.183L69.8349 146.379C69.8349 146.379 61.3349 150.587 59.3349 163.813C57.3349 177.039 31.3349 280.439 44.3349 286.45C57.3349 292.462 76.3349 294.867 76.3349 292.462C76.3349 290.057 84.3349 199.883 84.3349 199.883L76.3349 148.183Z" fill="#2F2E41"/>
<path d="M137.5 152.766L158.335 144.576C158.335 144.576 168.335 144.576 168.335 157.801C168.335 163.257 187.5 208.073 187.5 208.073C187.5 208.073 233.55 247.539 226.5 248.952C214.5 251.357 207.5 276.606 207.5 276.606L162.5 228.512L137.5 152.766Z" fill="#2F2E41"/>
<path d="M85.2835 87.721C85.2835 87.721 92.7356 75.4012 99.2562 73.1612C105.777 70.9212 106.708 59.7214 106.708 59.7214C106.708 59.7214 123.475 82.121 133.722 83.241C143.969 84.3609 134.654 56.3614 134.654 56.3614L116.023 50.7615L98.3247 53.0015L84.3521 64.2013L85.2835 87.721Z" fill="#2F2E41"/>
<path d="M90.835 86.8639C92.4918 86.8639 93.835 84.4416 93.835 81.4534C93.835 78.4653 92.4918 76.043 90.835 76.043C89.1781 76.043 87.835 78.4653 87.835 81.4534C87.835 84.4416 89.1781 86.8639 90.835 86.8639Z" fill="#FFB9B9"/>
<path d="M629.243 13.4577C632.138 13.4577 634.485 10.4451 634.485 6.72887C634.485 3.01262 632.138 0 629.243 0C626.347 0 624 3.01262 624 6.72887C624 10.4451 626.347 13.4577 629.243 13.4577Z" fill="#E6E6E6"/>
<path d="M655.781 13.4577C658.676 13.4577 661.024 10.4451 661.024 6.72887C661.024 3.01262 658.676 0 655.781 0C652.886 0 650.538 3.01262 650.538 6.72887C650.538 10.4451 652.886 13.4577 655.781 13.4577Z" fill="#E6E6E6"/>
<path d="M682.319 13.4577C685.215 13.4577 687.562 10.4451 687.562 6.72887C687.562 3.01262 685.215 0 682.319 0C679.424 0 677.077 3.01262 677.077 6.72887C677.077 10.4451 679.424 13.4577 682.319 13.4577Z" fill="#E6E6E6"/>
<path d="M708.858 13.4577C711.753 13.4577 714.1 10.4451 714.1 6.72887C714.1 3.01262 711.753 0 708.858 0C705.962 0 703.615 3.01262 703.615 6.72887C703.615 10.4451 705.962 13.4577 708.858 13.4577Z" fill="#E6E6E6"/>
<path d="M735.396 13.4577C738.291 13.4577 740.639 10.4451 740.639 6.72887C740.639 3.01262 738.291 0 735.396 0C732.501 0 730.153 3.01262 730.153 6.72887C730.153 10.4451 732.501 13.4577 735.396 13.4577Z" fill="#E6E6E6"/>
<path d="M761.934 13.4577C764.83 13.4577 767.177 10.4451 767.177 6.72887C767.177 3.01262 764.83 0 761.934 0C759.039 0 756.692 3.01262 756.692 6.72887C756.692 10.4451 759.039 13.4577 761.934 13.4577Z" fill="#E6E6E6"/>
<path d="M788.473 13.4577C791.368 13.4577 793.715 10.4451 793.715 6.72887C793.715 3.01262 791.368 0 788.473 0C785.577 0 783.23 3.01262 783.23 6.72887C783.23 10.4451 785.577 13.4577 788.473 13.4577Z" fill="#E6E6E6"/>
<path d="M815.011 13.4577C817.906 13.4577 820.254 10.4451 820.254 6.72887C820.254 3.01262 817.906 0 815.011 0C812.115 0 809.768 3.01262 809.768 6.72887C809.768 10.4451 812.115 13.4577 815.011 13.4577Z" fill="#E6E6E6"/>
<path d="M841.549 13.4577C844.445 13.4577 846.792 10.4451 846.792 6.72887C846.792 3.01262 844.445 0 841.549 0C838.654 0 836.307 3.01262 836.307 6.72887C836.307 10.4451 838.654 13.4577 841.549 13.4577Z" fill="#E6E6E6"/>
<path d="M868.088 13.4577C870.983 13.4577 873.33 10.4451 873.33 6.72887C873.33 3.01262 870.983 0 868.088 0C865.192 0 862.845 3.01262 862.845 6.72887C862.845 10.4451 865.192 13.4577 868.088 13.4577Z" fill="#E6E6E6"/>
<path d="M629.243 47.947C632.138 47.947 634.485 44.9343 634.485 41.2181C634.485 37.5018 632.138 34.4892 629.243 34.4892C626.347 34.4892 624 37.5018 624 41.2181C624 44.9343 626.347 47.947 629.243 47.947Z" fill="#E6E6E6"/>
<path d="M655.781 47.947C658.676 47.947 661.024 44.9343 661.024 41.2181C661.024 37.5018 658.676 34.4892 655.781 34.4892C652.886 34.4892 650.538 37.5018 650.538 41.2181C650.538 44.9343 652.886 47.947 655.781 47.947Z" fill="#E6E6E6"/>
<path d="M682.319 47.947C685.215 47.947 687.562 44.9343 687.562 41.2181C687.562 37.5018 685.215 34.4892 682.319 34.4892C679.424 34.4892 677.077 37.5018 677.077 41.2181C677.077 44.9343 679.424 47.947 682.319 47.947Z" fill="#E6E6E6"/>
<path d="M708.858 47.947C711.753 47.947 714.1 44.9343 714.1 41.2181C714.1 37.5018 711.753 34.4892 708.858 34.4892C705.962 34.4892 703.615 37.5018 703.615 41.2181C703.615 44.9343 705.962 47.947 708.858 47.947Z" fill="#894DB1"/>
<path d="M735.396 47.947C738.291 47.947 740.639 44.9343 740.639 41.2181C740.639 37.5018 738.291 34.4892 735.396 34.4892C732.501 34.4892 730.153 37.5018 730.153 41.2181C730.153 44.9343 732.501 47.947 735.396 47.947Z" fill="#E6E6E6"/>
<path d="M761.934 47.947C764.83 47.947 767.177 44.9343 767.177 41.2181C767.177 37.5018 764.83 34.4892 761.934 34.4892C759.039 34.4892 756.692 37.5018 756.692 41.2181C756.692 44.9343 759.039 47.947 761.934 47.947Z" fill="#E6E6E6"/>
<path d="M788.473 47.947C791.368 47.947 793.715 44.9343 793.715 41.2181C793.715 37.5018 791.368 34.4892 788.473 34.4892C785.577 34.4892 783.23 37.5018 783.23 41.2181C783.23 44.9343 785.577 47.947 788.473 47.947Z" fill="#E6E6E6"/>
<path d="M815.011 47.947C817.906 47.947 820.254 44.9343 820.254 41.2181C820.254 37.5018 817.906 34.4892 815.011 34.4892C812.115 34.4892 809.768 37.5018 809.768 41.2181C809.768 44.9343 812.115 47.947 815.011 47.947Z" fill="#E6E6E6"/>
<path d="M841.549 47.947C844.445 47.947 846.792 44.9343 846.792 41.2181C846.792 37.5018 844.445 34.4892 841.549 34.4892C838.654 34.4892 836.307 37.5018 836.307 41.2181C836.307 44.9343 838.654 47.947 841.549 47.947Z" fill="#E6E6E6"/>
<path d="M868.088 47.947C870.983 47.947 873.33 44.9343 873.33 41.2181C873.33 37.5018 870.983 34.4892 868.088 34.4892C865.192 34.4892 862.845 37.5018 862.845 41.2181C862.845 44.9343 865.192 47.947 868.088 47.947Z" fill="#E6E6E6"/>
<path d="M629.243 82.436C632.138 82.436 634.485 79.4234 634.485 75.7071C634.485 71.9909 632.138 68.9782 629.243 68.9782C626.347 68.9782 624 71.9909 624 75.7071C624 79.4234 626.347 82.436 629.243 82.436Z" fill="#E6E6E6"/>
<path d="M655.781 82.436C658.676 82.436 661.024 79.4234 661.024 75.7071C661.024 71.9909 658.676 68.9782 655.781 68.9782C652.886 68.9782 650.538 71.9909 650.538 75.7071C650.538 79.4234 652.886 82.436 655.781 82.436Z" fill="#E6E6E6"/>
<path d="M682.319 82.436C685.215 82.436 687.562 79.4234 687.562 75.7071C687.562 71.9909 685.215 68.9782 682.319 68.9782C679.424 68.9782 677.077 71.9909 677.077 75.7071C677.077 79.4234 679.424 82.436 682.319 82.436Z" fill="#E6E6E6"/>
<path d="M708.858 82.436C711.753 82.436 714.1 79.4234 714.1 75.7071C714.1 71.9909 711.753 68.9782 708.858 68.9782C705.962 68.9782 703.615 71.9909 703.615 75.7071C703.615 79.4234 705.962 82.436 708.858 82.436Z" fill="#E6E6E6"/>
<path d="M735.396 82.436C738.291 82.436 740.639 79.4234 740.639 75.7071C740.639 71.9909 738.291 68.9782 735.396 68.9782C732.501 68.9782 730.153 71.9909 730.153 75.7071C730.153 79.4234 732.501 82.436 735.396 82.436Z" fill="#E6E6E6"/>
<path d="M761.934 82.436C764.83 82.436 767.177 79.4234 767.177 75.7071C767.177 71.9909 764.83 68.9782 761.934 68.9782C759.039 68.9782 756.692 71.9909 756.692 75.7071C756.692 79.4234 759.039 82.436 761.934 82.436Z" fill="#E6E6E6"/>
<path d="M788.473 82.436C791.368 82.436 793.715 79.4234 793.715 75.7071C793.715 71.9909 791.368 68.9782 788.473 68.9782C785.577 68.9782 783.23 71.9909 783.23 75.7071C783.23 79.4234 785.577 82.436 788.473 82.436Z" fill="#E6E6E6"/>
<path d="M815.011 82.436C817.906 82.436 820.254 79.4234 820.254 75.7071C820.254 71.9909 817.906 68.9782 815.011 68.9782C812.115 68.9782 809.768 71.9909 809.768 75.7071C809.768 79.4234 812.115 82.436 815.011 82.436Z" fill="#E6E6E6"/>
<path d="M841.549 82.436C844.445 82.436 846.792 79.4234 846.792 75.7071C846.792 71.9909 844.445 68.9782 841.549 68.9782C838.654 68.9782 836.307 71.9909 836.307 75.7071C836.307 79.4234 838.654 82.436 841.549 82.436Z" fill="#E6E6E6"/>
<path d="M868.088 82.436C870.983 82.436 873.33 79.4234 873.33 75.7071C873.33 71.9909 870.983 68.9782 868.088 68.9782C865.192 68.9782 862.845 71.9909 862.845 75.7071C862.845 79.4234 865.192 82.436 868.088 82.436Z" fill="#E6E6E6"/>
<path d="M629.243 116.925C632.138 116.925 634.485 113.912 634.485 110.196C634.485 106.48 632.138 103.467 629.243 103.467C626.347 103.467 624 106.48 624 110.196C624 113.912 626.347 116.925 629.243 116.925Z" fill="#E6E6E6"/>
<path d="M655.781 116.925C658.676 116.925 661.024 113.912 661.024 110.196C661.024 106.48 658.676 103.467 655.781 103.467C652.886 103.467 650.538 106.48 650.538 110.196C650.538 113.912 652.886 116.925 655.781 116.925Z" fill="#E6E6E6"/>
<path d="M682.319 116.925C685.215 116.925 687.562 113.912 687.562 110.196C687.562 106.48 685.215 103.467 682.319 103.467C679.424 103.467 677.077 106.48 677.077 110.196C677.077 113.912 679.424 116.925 682.319 116.925Z" fill="#E6E6E6"/>
<path d="M708.858 116.925C711.753 116.925 714.1 113.912 714.1 110.196C714.1 106.48 711.753 103.467 708.858 103.467C705.962 103.467 703.615 106.48 703.615 110.196C703.615 113.912 705.962 116.925 708.858 116.925Z" fill="#E6E6E6"/>
<path d="M735.396 116.925C738.291 116.925 740.639 113.912 740.639 110.196C740.639 106.48 738.291 103.467 735.396 103.467C732.501 103.467 730.153 106.48 730.153 110.196C730.153 113.912 732.501 116.925 735.396 116.925Z" fill="#E6E6E6"/>
<path d="M761.934 116.925C764.83 116.925 767.177 113.912 767.177 110.196C767.177 106.48 764.83 103.467 761.934 103.467C759.039 103.467 756.692 106.48 756.692 110.196C756.692 113.912 759.039 116.925 761.934 116.925Z" fill="#E6E6E6"/>
<path d="M788.473 116.925C791.368 116.925 793.715 113.912 793.715 110.196C793.715 106.48 791.368 103.467 788.473 103.467C785.577 103.467 783.23 106.48 783.23 110.196C783.23 113.912 785.577 116.925 788.473 116.925Z" fill="#E6E6E6"/>
<path d="M815.011 116.925C817.906 116.925 820.254 113.912 820.254 110.196C820.254 106.48 817.906 103.467 815.011 103.467C812.115 103.467 809.768 106.48 809.768 110.196C809.768 113.912 812.115 116.925 815.011 116.925Z" fill="#E6E6E6"/>
<path d="M841.549 116.925C844.445 116.925 846.792 113.912 846.792 110.196C846.792 106.48 844.445 103.467 841.549 103.467C838.654 103.467 836.307 106.48 836.307 110.196C836.307 113.912 838.654 116.925 841.549 116.925Z" fill="#E6E6E6"/>
<path d="M868.088 116.925C870.983 116.925 873.33 113.912 873.33 110.196C873.33 106.48 870.983 103.467 868.088 103.467C865.192 103.467 862.845 106.48 862.845 110.196C862.845 113.912 865.192 116.925 868.088 116.925Z" fill="#E6E6E6"/>
<path d="M629.243 151.414C632.138 151.414 634.485 148.401 634.485 144.685C634.485 140.969 632.138 137.956 629.243 137.956C626.347 137.956 624 140.969 624 144.685C624 148.401 626.347 151.414 629.243 151.414Z" fill="#E6E6E6"/>
<path d="M655.781 151.414C658.676 151.414 661.024 148.401 661.024 144.685C661.024 140.969 658.676 137.956 655.781 137.956C652.886 137.956 650.538 140.969 650.538 144.685C650.538 148.401 652.886 151.414 655.781 151.414Z" fill="#894DB1"/>
<path d="M682.319 151.414C685.215 151.414 687.562 148.401 687.562 144.685C687.562 140.969 685.215 137.956 682.319 137.956C679.424 137.956 677.077 140.969 677.077 144.685C677.077 148.401 679.424 151.414 682.319 151.414Z" fill="#E6E6E6"/>
<path d="M708.858 151.414C711.753 151.414 714.1 148.401 714.1 144.685C714.1 140.969 711.753 137.956 708.858 137.956C705.962 137.956 703.615 140.969 703.615 144.685C703.615 148.401 705.962 151.414 708.858 151.414Z" fill="#E6E6E6"/>
<path d="M735.396 151.414C738.291 151.414 740.639 148.401 740.639 144.685C740.639 140.969 738.291 137.956 735.396 137.956C732.501 137.956 730.153 140.969 730.153 144.685C730.153 148.401 732.501 151.414 735.396 151.414Z" fill="#E6E6E6"/>
<path d="M761.934 151.414C764.83 151.414 767.177 148.401 767.177 144.685C767.177 140.969 764.83 137.956 761.934 137.956C759.039 137.956 756.692 140.969 756.692 144.685C756.692 148.401 759.039 151.414 761.934 151.414Z" fill="#E6E6E6"/>
<path d="M788.473 151.414C791.368 151.414 793.715 148.401 793.715 144.685C793.715 140.969 791.368 137.956 788.473 137.956C785.577 137.956 783.23 140.969 783.23 144.685C783.23 148.401 785.577 151.414 788.473 151.414Z" fill="#E6E6E6"/>
<path d="M815.011 151.414C817.906 151.414 820.254 148.401 820.254 144.685C820.254 140.969 817.906 137.956 815.011 137.956C812.115 137.956 809.768 140.969 809.768 144.685C809.768 148.401 812.115 151.414 815.011 151.414Z" fill="#E6E6E6"/>
<path d="M841.549 151.414C844.445 151.414 846.792 148.401 846.792 144.685C846.792 140.969 844.445 137.956 841.549 137.956C838.654 137.956 836.307 140.969 836.307 144.685C836.307 148.401 838.654 151.414 841.549 151.414Z" fill="#E6E6E6"/>
<path d="M868.088 151.414C870.983 151.414 873.33 148.401 873.33 144.685C873.33 140.969 870.983 137.956 868.088 137.956C865.192 137.956 862.845 140.969 862.845 144.685C862.845 148.401 865.192 151.414 868.088 151.414Z" fill="#E6E6E6"/>
<path d="M629.243 185.903C632.138 185.903 634.485 182.89 634.485 179.174C634.485 175.458 632.138 172.445 629.243 172.445C626.347 172.445 624 175.458 624 179.174C624 182.89 626.347 185.903 629.243 185.903Z" fill="#E6E6E6"/>
<path d="M655.781 185.903C658.676 185.903 661.024 182.89 661.024 179.174C661.024 175.458 658.676 172.445 655.781 172.445C652.886 172.445 650.538 175.458 650.538 179.174C650.538 182.89 652.886 185.903 655.781 185.903Z" fill="#E6E6E6"/>
<path d="M682.319 185.903C685.215 185.903 687.562 182.89 687.562 179.174C687.562 175.458 685.215 172.445 682.319 172.445C679.424 172.445 677.077 175.458 677.077 179.174C677.077 182.89 679.424 185.903 682.319 185.903Z" fill="#E6E6E6"/>
<path d="M708.858 185.903C711.753 185.903 714.1 182.89 714.1 179.174C714.1 175.458 711.753 172.445 708.858 172.445C705.962 172.445 703.615 175.458 703.615 179.174C703.615 182.89 705.962 185.903 708.858 185.903Z" fill="#E6E6E6"/>
<path d="M735.396 185.903C738.291 185.903 740.639 182.89 740.639 179.174C740.639 175.458 738.291 172.445 735.396 172.445C732.501 172.445 730.153 175.458 730.153 179.174C730.153 182.89 732.501 185.903 735.396 185.903Z" fill="#E6E6E6"/>
<path d="M761.934 185.903C764.83 185.903 767.177 182.89 767.177 179.174C767.177 175.458 764.83 172.445 761.934 172.445C759.039 172.445 756.692 175.458 756.692 179.174C756.692 182.89 759.039 185.903 761.934 185.903Z" fill="#E6E6E6"/>
<path d="M788.473 185.903C791.368 185.903 793.715 182.89 793.715 179.174C793.715 175.458 791.368 172.445 788.473 172.445C785.577 172.445 783.23 175.458 783.23 179.174C783.23 182.89 785.577 185.903 788.473 185.903Z" fill="#E6E6E6"/>
<path d="M815.011 185.903C817.906 185.903 820.254 182.89 820.254 179.174C820.254 175.458 817.906 172.445 815.011 172.445C812.115 172.445 809.768 175.458 809.768 179.174C809.768 182.89 812.115 185.903 815.011 185.903Z" fill="#E6E6E6"/>
<path d="M841.549 185.903C844.445 185.903 846.792 182.89 846.792 179.174C846.792 175.458 844.445 172.445 841.549 172.445C838.654 172.445 836.307 175.458 836.307 179.174C836.307 182.89 838.654 185.903 841.549 185.903Z" fill="#E6E6E6"/>
<path d="M868.088 185.903C870.983 185.903 873.33 182.89 873.33 179.174C873.33 175.458 870.983 172.445 868.088 172.445C865.192 172.445 862.845 175.458 862.845 179.174C862.845 182.89 865.192 185.903 868.088 185.903Z" fill="#E6E6E6"/>
<path d="M629.243 220.392C632.138 220.392 634.485 217.379 634.485 213.663C634.485 209.947 632.138 206.934 629.243 206.934C626.347 206.934 624 209.947 624 213.663C624 217.379 626.347 220.392 629.243 220.392Z" fill="#E6E6E6"/>
<path d="M655.781 220.392C658.676 220.392 661.024 217.379 661.024 213.663C661.024 209.947 658.676 206.934 655.781 206.934C652.886 206.934 650.538 209.947 650.538 213.663C650.538 217.379 652.886 220.392 655.781 220.392Z" fill="#E6E6E6"/>
<path d="M682.319 220.392C685.215 220.392 687.562 217.379 687.562 213.663C687.562 209.947 685.215 206.934 682.319 206.934C679.424 206.934 677.077 209.947 677.077 213.663C677.077 217.379 679.424 220.392 682.319 220.392Z" fill="#894DB1"/>
<path d="M708.858 220.392C711.753 220.392 714.1 217.379 714.1 213.663C714.1 209.947 711.753 206.934 708.858 206.934C705.962 206.934 703.615 209.947 703.615 213.663C703.615 217.379 705.962 220.392 708.858 220.392Z" fill="#E6E6E6"/>
<path d="M735.396 220.392C738.291 220.392 740.639 217.379 740.639 213.663C740.639 209.947 738.291 206.934 735.396 206.934C732.501 206.934 730.153 209.947 730.153 213.663C730.153 217.379 732.501 220.392 735.396 220.392Z" fill="#E6E6E6"/>
<path d="M761.934 220.392C764.83 220.392 767.177 217.379 767.177 213.663C767.177 209.947 764.83 206.934 761.934 206.934C759.039 206.934 756.692 209.947 756.692 213.663C756.692 217.379 759.039 220.392 761.934 220.392Z" fill="#E6E6E6"/>
<path d="M788.473 220.392C791.368 220.392 793.715 217.379 793.715 213.663C793.715 209.947 791.368 206.934 788.473 206.934C785.577 206.934 783.23 209.947 783.23 213.663C783.23 217.379 785.577 220.392 788.473 220.392Z" fill="#E6E6E6"/>
<path d="M815.011 220.392C817.906 220.392 820.254 217.379 820.254 213.663C820.254 209.947 817.906 206.934 815.011 206.934C812.115 206.934 809.768 209.947 809.768 213.663C809.768 217.379 812.115 220.392 815.011 220.392Z" fill="#E6E6E6"/>
<path d="M841.549 220.392C844.445 220.392 846.792 217.379 846.792 213.663C846.792 209.947 844.445 206.934 841.549 206.934C838.654 206.934 836.307 209.947 836.307 213.663C836.307 217.379 838.654 220.392 841.549 220.392Z" fill="#E6E6E6"/>
<path d="M868.088 220.392C870.983 220.392 873.33 217.379 873.33 213.663C873.33 209.947 870.983 206.934 868.088 206.934C865.192 206.934 862.845 209.947 862.845 213.663C862.845 217.379 865.192 220.392 868.088 220.392Z" fill="#E6E6E6"/>
<path d="M629.243 254.881C632.138 254.881 634.485 251.868 634.485 248.152C634.485 244.436 632.138 241.423 629.243 241.423C626.347 241.423 624 244.436 624 248.152C624 251.868 626.347 254.881 629.243 254.881Z" fill="#E6E6E6"/>
<path d="M655.781 254.881C658.676 254.881 661.024 251.868 661.024 248.152C661.024 244.436 658.676 241.423 655.781 241.423C652.886 241.423 650.538 244.436 650.538 248.152C650.538 251.868 652.886 254.881 655.781 254.881Z" fill="#E6E6E6"/>
<path d="M682.319 254.881C685.215 254.881 687.562 251.868 687.562 248.152C687.562 244.436 685.215 241.423 682.319 241.423C679.424 241.423 677.077 244.436 677.077 248.152C677.077 251.868 679.424 254.881 682.319 254.881Z" fill="#E6E6E6"/>
<path d="M708.858 254.881C711.753 254.881 714.1 251.868 714.1 248.152C714.1 244.436 711.753 241.423 708.858 241.423C705.962 241.423 703.615 244.436 703.615 248.152C703.615 251.868 705.962 254.881 708.858 254.881Z" fill="#E6E6E6"/>
<path d="M735.396 254.881C738.291 254.881 740.639 251.868 740.639 248.152C740.639 244.436 738.291 241.423 735.396 241.423C732.501 241.423 730.153 244.436 730.153 248.152C730.153 251.868 732.501 254.881 735.396 254.881Z" fill="#E6E6E6"/>
<path d="M761.934 254.881C764.83 254.881 767.177 251.868 767.177 248.152C767.177 244.436 764.83 241.423 761.934 241.423C759.039 241.423 756.692 244.436 756.692 248.152C756.692 251.868 759.039 254.881 761.934 254.881Z" fill="#E6E6E6"/>
<path d="M788.473 254.881C791.368 254.881 793.715 251.868 793.715 248.152C793.715 244.436 791.368 241.423 788.473 241.423C785.577 241.423 783.23 244.436 783.23 248.152C783.23 251.868 785.577 254.881 788.473 254.881Z" fill="#E6E6E6"/>
<path d="M815.011 254.881C817.906 254.881 820.254 251.868 820.254 248.152C820.254 244.436 817.906 241.423 815.011 241.423C812.115 241.423 809.768 244.436 809.768 248.152C809.768 251.868 812.115 254.881 815.011 254.881Z" fill="#E6E6E6"/>
<path d="M841.549 254.881C844.445 254.881 846.792 251.868 846.792 248.152C846.792 244.436 844.445 241.423 841.549 241.423C838.654 241.423 836.307 244.436 836.307 248.152C836.307 251.868 838.654 254.881 841.549 254.881Z" fill="#E6E6E6"/>
<path d="M868.088 254.881C870.983 254.881 873.33 251.868 873.33 248.152C873.33 244.436 870.983 241.423 868.088 241.423C865.192 241.423 862.845 244.436 862.845 248.152C862.845 251.868 865.192 254.881 868.088 254.881Z" fill="#E6E6E6"/>
<path d="M629.243 289.37C632.138 289.37 634.485 286.357 634.485 282.641C634.485 278.925 632.138 275.912 629.243 275.912C626.347 275.912 624 278.925 624 282.641C624 286.357 626.347 289.37 629.243 289.37Z" fill="#E6E6E6"/>
<path d="M655.781 289.37C658.676 289.37 661.024 286.357 661.024 282.641C661.024 278.925 658.676 275.912 655.781 275.912C652.886 275.912 650.538 278.925 650.538 282.641C650.538 286.357 652.886 289.37 655.781 289.37Z" fill="#E6E6E6"/>
<path d="M682.319 289.37C685.215 289.37 687.562 286.357 687.562 282.641C687.562 278.925 685.215 275.912 682.319 275.912C679.424 275.912 677.077 278.925 677.077 282.641C677.077 286.357 679.424 289.37 682.319 289.37Z" fill="#E6E6E6"/>
<path d="M708.858 289.37C711.753 289.37 714.1 286.357 714.1 282.641C714.1 278.925 711.753 275.912 708.858 275.912C705.962 275.912 703.615 278.925 703.615 282.641C703.615 286.357 705.962 289.37 708.858 289.37Z" fill="#E6E6E6"/>
<path d="M735.396 289.37C738.291 289.37 740.639 286.357 740.639 282.641C740.639 278.925 738.291 275.912 735.396 275.912C732.501 275.912 730.153 278.925 730.153 282.641C730.153 286.357 732.501 289.37 735.396 289.37Z" fill="#E6E6E6"/>
<path d="M761.934 289.37C764.83 289.37 767.177 286.357 767.177 282.641C767.177 278.925 764.83 275.912 761.934 275.912C759.039 275.912 756.692 278.925 756.692 282.641C756.692 286.357 759.039 289.37 761.934 289.37Z" fill="#E6E6E6"/>
<path d="M788.473 289.37C791.368 289.37 793.715 286.357 793.715 282.641C793.715 278.925 791.368 275.912 788.473 275.912C785.577 275.912 783.23 278.925 783.23 282.641C783.23 286.357 785.577 289.37 788.473 289.37Z" fill="#E6E6E6"/>
<path d="M815.011 289.37C817.906 289.37 820.254 286.357 820.254 282.641C820.254 278.925 817.906 275.912 815.011 275.912C812.115 275.912 809.768 278.925 809.768 282.641C809.768 286.357 812.115 289.37 815.011 289.37Z" fill="#E6E6E6"/>
<path d="M841.549 289.37C844.445 289.37 846.792 286.357 846.792 282.641C846.792 278.925 844.445 275.912 841.549 275.912C838.654 275.912 836.307 278.925 836.307 282.641C836.307 286.357 838.654 289.37 841.549 289.37Z" fill="#E6E6E6"/>
<path d="M868.088 289.37C870.983 289.37 873.33 286.357 873.33 282.641C873.33 278.925 870.983 275.912 868.088 275.912C865.192 275.912 862.845 278.925 862.845 282.641C862.845 286.357 865.192 289.37 868.088 289.37Z" fill="#E6E6E6"/>
<path d="M629.243 323.859C632.138 323.859 634.485 320.846 634.485 317.13C634.485 313.414 632.138 310.401 629.243 310.401C626.347 310.401 624 313.414 624 317.13C624 320.846 626.347 323.859 629.243 323.859Z" fill="#E6E6E6"/>
<path d="M655.781 323.859C658.676 323.859 661.024 320.846 661.024 317.13C661.024 313.414 658.676 310.401 655.781 310.401C652.886 310.401 650.538 313.414 650.538 317.13C650.538 320.846 652.886 323.859 655.781 323.859Z" fill="#E6E6E6"/>
<path d="M682.319 323.859C685.215 323.859 687.562 320.846 687.562 317.13C687.562 313.414 685.215 310.401 682.319 310.401C679.424 310.401 677.077 313.414 677.077 317.13C677.077 320.846 679.424 323.859 682.319 323.859Z" fill="#E6E6E6"/>
<path d="M708.858 323.859C711.753 323.859 714.1 320.846 714.1 317.13C714.1 313.414 711.753 310.401 708.858 310.401C705.962 310.401 703.615 313.414 703.615 317.13C703.615 320.846 705.962 323.859 708.858 323.859Z" fill="#E6E6E6"/>
<path d="M735.396 323.859C738.291 323.859 740.639 320.846 740.639 317.13C740.639 313.414 738.291 310.401 735.396 310.401C732.501 310.401 730.153 313.414 730.153 317.13C730.153 320.846 732.501 323.859 735.396 323.859Z" fill="#E6E6E6"/>
<path d="M761.934 323.859C764.83 323.859 767.177 320.846 767.177 317.13C767.177 313.414 764.83 310.401 761.934 310.401C759.039 310.401 756.692 313.414 756.692 317.13C756.692 320.846 759.039 323.859 761.934 323.859Z" fill="#E6E6E6"/>
<path d="M788.473 323.859C791.368 323.859 793.715 320.846 793.715 317.13C793.715 313.414 791.368 310.401 788.473 310.401C785.577 310.401 783.23 313.414 783.23 317.13C783.23 320.846 785.577 323.859 788.473 323.859Z" fill="#E6E6E6"/>
<path d="M815.011 323.859C817.906 323.859 820.254 320.846 820.254 317.13C820.254 313.414 817.906 310.401 815.011 310.401C812.115 310.401 809.768 313.414 809.768 317.13C809.768 320.846 812.115 323.859 815.011 323.859Z" fill="#E6E6E6"/>
<path d="M841.549 323.859C844.445 323.859 846.792 320.846 846.792 317.13C846.792 313.414 844.445 310.401 841.549 310.401C838.654 310.401 836.307 313.414 836.307 317.13C836.307 320.846 838.654 323.859 841.549 323.859Z" fill="#E6E6E6"/>
<path d="M868.088 323.859C870.983 323.859 873.33 320.846 873.33 317.13C873.33 313.414 870.983 310.401 868.088 310.401C865.192 310.401 862.845 313.414 862.845 317.13C862.845 320.846 865.192 323.859 868.088 323.859Z" fill="#E6E6E6"/>
<path d="M932.1 60.1364C933.858 60.1364 935.544 61.0327 936.787 62.6281C938.03 64.2235 938.728 66.3874 938.728 68.6436V408.931C938.728 410.049 938.557 411.155 938.224 412.187C937.891 413.219 937.402 414.157 936.787 414.947C936.171 415.737 935.441 416.363 934.637 416.791C933.832 417.218 932.97 417.439 932.1 417.439H741.87C741 417.439 740.138 417.218 739.334 416.791C738.53 416.363 737.799 415.737 737.183 414.947C736.568 414.157 736.08 413.219 735.747 412.187C735.414 411.155 735.242 410.049 735.242 408.931V68.6436C735.242 66.3874 735.94 64.2235 737.183 62.6281C738.426 61.0327 740.112 60.1364 741.87 60.1364H932.1" fill="#E6E6E6"/>
<path d="M742.642 407.941H931.328V69.6339H742.642V407.941Z" fill="white"/>
<path d="M889.348 123.158C889.522 123.158 889.694 123.202 889.855 123.287C890.016 123.373 890.162 123.498 890.285 123.656C890.408 123.814 890.506 124.002 890.573 124.208C890.639 124.414 890.674 124.636 890.674 124.859V128.262C890.674 128.713 890.534 129.146 890.285 129.465C890.037 129.784 889.7 129.963 889.348 129.963H784.622C784.448 129.963 784.276 129.919 784.115 129.834C783.954 129.748 783.808 129.623 783.685 129.465C783.562 129.307 783.464 129.12 783.398 128.913C783.331 128.707 783.297 128.485 783.297 128.262V124.859C783.297 124.636 783.331 124.414 783.398 124.208C783.464 124.002 783.562 123.814 783.685 123.656C783.808 123.498 783.954 123.373 784.115 123.287C784.276 123.202 784.448 123.158 784.622 123.158H889.348" fill="#E6E6E6"/>
<path d="M889.348 139.321C889.7 139.321 890.037 139.501 890.285 139.82C890.534 140.139 890.674 140.572 890.674 141.023V144.426C890.674 144.877 890.534 145.31 890.285 145.629C890.037 145.948 889.7 146.127 889.348 146.127H784.622C784.448 146.127 784.276 146.083 784.115 145.998C783.954 145.912 783.808 145.787 783.685 145.629C783.562 145.471 783.464 145.283 783.398 145.077C783.331 144.87 783.297 144.649 783.297 144.426V141.023C783.297 140.799 783.331 140.578 783.398 140.372C783.464 140.165 783.562 139.978 783.685 139.82C783.808 139.662 783.954 139.536 784.115 139.451C784.276 139.365 784.448 139.321 784.622 139.321H889.348" fill="#E6E6E6"/>
<path d="M889.348 155.485C889.7 155.485 890.037 155.664 890.285 155.983C890.534 156.302 890.674 156.735 890.674 157.186V160.589C890.674 161.041 890.534 161.473 890.285 161.792C890.037 162.111 889.7 162.291 889.348 162.291H784.622C784.271 162.291 783.934 162.111 783.685 161.792C783.436 161.473 783.297 161.041 783.297 160.589V157.186C783.297 156.735 783.436 156.302 783.685 155.983C783.934 155.664 784.271 155.485 784.622 155.485H889.348" fill="#894DB1"/>
<path d="M889.348 172.002C889.7 172.002 890.037 172.182 890.285 172.501C890.534 172.82 890.674 173.253 890.674 173.704V177.107C890.674 177.558 890.534 177.991 890.285 178.31C890.037 178.629 889.7 178.808 889.348 178.808H784.622C784.448 178.808 784.276 178.764 784.115 178.679C783.954 178.593 783.808 178.468 783.685 178.31C783.562 178.152 783.464 177.964 783.398 177.758C783.331 177.551 783.297 177.33 783.297 177.107V173.704C783.297 173.48 783.331 173.259 783.398 173.053C783.464 172.846 783.562 172.659 783.685 172.501C783.808 172.343 783.954 172.217 784.115 172.132C784.276 172.046 784.448 172.002 784.622 172.002H889.348" fill="#E6E6E6"/>
<path d="M889.348 188.166C889.7 188.166 890.037 188.345 890.285 188.664C890.534 188.983 890.674 189.416 890.674 189.867V193.27C890.674 193.494 890.639 193.715 890.573 193.921C890.506 194.128 890.408 194.315 890.285 194.473C890.162 194.631 890.016 194.757 889.855 194.842C889.694 194.928 889.522 194.972 889.348 194.972H784.622C784.448 194.972 784.276 194.928 784.115 194.842C783.954 194.757 783.808 194.631 783.685 194.473C783.562 194.315 783.464 194.128 783.398 193.921C783.331 193.715 783.297 193.494 783.297 193.27V189.867C783.297 189.644 783.331 189.423 783.398 189.216C783.464 189.01 783.562 188.822 783.685 188.664C783.808 188.506 783.954 188.381 784.115 188.296C784.276 188.21 784.448 188.166 784.622 188.166H889.348" fill="#E6E6E6"/>
<path d="M889.348 204.33C889.7 204.33 890.037 204.509 890.285 204.828C890.534 205.147 890.674 205.58 890.674 206.031V209.434C890.674 209.885 890.534 210.318 890.285 210.637C890.037 210.956 889.7 211.136 889.348 211.136H784.622C784.271 211.136 783.934 210.956 783.685 210.637C783.436 210.318 783.297 209.885 783.297 209.434V206.031C783.297 205.58 783.436 205.147 783.685 204.828C783.934 204.509 784.271 204.33 784.622 204.33H889.348" fill="#E6E6E6"/>
<path d="M785.291 258.703C784.883 258.704 784.492 258.912 784.203 259.282C783.915 259.653 783.753 260.155 783.752 260.679V352.442C783.753 352.966 783.915 353.468 784.203 353.838C784.492 354.208 784.883 354.417 785.291 354.417H888.501C888.909 354.417 889.3 354.208 889.589 353.838C889.877 353.468 890.039 352.966 890.04 352.442V260.679C890.039 260.155 889.877 259.653 889.589 259.282C889.3 258.912 888.909 258.704 888.501 258.703H785.291Z" fill="#894DB1"/>
<path d="M837.33 159.183L836.246 158.814L859.89 44.6599H997.029V46.0988H860.751L837.33 159.183Z" fill="#3F3D56"/>
<path d="M1008.23 60.4807C1005.91 60.4807 1003.63 59.5951 1001.7 57.9357C999.762 56.2763 998.254 53.9178 997.364 51.1584C996.473 48.399 996.24 45.3626 996.694 42.4333C997.148 39.5039 998.269 36.8131 999.914 34.7011C1001.56 32.5891 1003.66 31.1509 1005.94 30.5682C1008.22 29.9855 1010.59 30.2846 1012.74 31.4275C1014.89 32.5705 1016.72 34.5061 1018.02 36.9895C1019.31 39.4729 1020 42.3926 1020 45.3794C1020 49.3831 1018.76 53.2216 1016.55 56.0526C1014.34 58.8837 1011.35 60.4762 1008.23 60.4807V60.4807ZM1008.23 31.7163C1006.13 31.7163 1004.07 32.5176 1002.32 34.0189C1000.57 35.5202 999.205 37.6541 998.399 40.1507C997.593 42.6473 997.382 45.3945 997.793 48.0449C998.204 50.6953 999.218 53.1298 1000.71 55.0407C1002.2 56.9515 1004.09 58.2528 1006.16 58.78C1008.22 59.3072 1010.36 59.0366 1012.31 58.0025C1014.25 56.9683 1015.92 55.2171 1017.09 52.9702C1018.25 50.7233 1018.88 48.0817 1018.88 45.3794C1018.88 41.757 1017.75 38.2841 1015.76 35.7226C1013.76 33.1612 1011.06 31.7204 1008.23 31.7163Z" fill="#3F3D56"/>
<path d="M1008.23 51.1323C1010.71 51.1323 1012.72 48.5567 1012.72 45.3794C1012.72 42.2022 1010.71 39.6265 1008.23 39.6265C1005.76 39.6265 1003.75 42.2022 1003.75 45.3794C1003.75 48.5567 1005.76 51.1323 1008.23 51.1323Z" fill="#894DB1"/>
<path d="M833.664 352.515L834.746 352.887L810.934 466.982L673.795 466.646L673.797 465.207L810.074 465.543L833.664 352.515Z" fill="#3F3D56"/>
<path d="M662.612 450.797C664.939 450.803 667.213 451.694 669.145 453.359C671.078 455.023 672.582 457.385 673.469 460.146C674.355 462.908 674.584 465.945 674.125 468.873C673.667 471.801 672.542 474.49 670.894 476.597C669.245 478.705 667.146 480.138 664.863 480.715C662.58 481.293 660.215 480.988 658.066 479.839C655.918 478.691 654.083 476.751 652.794 474.264C651.505 471.778 650.819 468.856 650.824 465.87C650.833 461.866 652.08 458.031 654.29 455.205C656.5 452.379 659.493 450.794 662.612 450.797V450.797ZM662.569 479.562C664.675 479.567 666.734 478.771 668.487 477.274C670.24 475.777 671.608 473.646 672.417 471.152C673.226 468.657 673.441 465.91 673.035 463.259C672.628 460.607 671.617 458.17 670.132 456.256C668.646 454.341 666.751 453.035 664.687 452.503C662.622 451.971 660.482 452.236 658.535 453.266C656.588 454.295 654.923 456.042 653.75 458.286C652.577 460.53 651.948 463.17 651.944 465.872C651.942 469.495 653.06 472.971 655.051 475.537C657.043 478.103 659.747 479.551 662.569 479.562V479.562Z" fill="#3F3D56"/>
<path d="M662.59 471.652C665.065 471.652 667.072 469.076 667.072 465.899C667.072 462.721 665.065 460.146 662.59 460.146C660.114 460.146 658.108 462.721 658.108 465.899C658.108 469.076 660.114 471.652 662.59 471.652Z" fill="#894DB1"/>
</svg>
